<?xml version="1.0" encoding="UTF-8" standalone="no"?>
<!DOCTYPE svg PUBLIC "-//W3C//DTD SVG 1.1//EN" "http://www.w3.org/Graphics/SVG/1.1/DTD/svg11.dtd">
<svg xmlns="http://www.w3.org/2000/svg" version="1.1" viewBox="0 0 1024 1024" width="1024.0pt" height="1024.0pt">
<path d="M 534.10 18.82 C 540.05 19.73 546.05 19.19 551.99 20.11 C 645.95 27.41 737.02 62.82 811.68 120.28 C 869.25 164.42 916.95 221.29 950.29 285.73 C 980.98 344.95 999.39 410.33 1003.99 476.88 C 1004.92 483.92 1004.26 490.93 1005.18 497.98 C 1005.32 508.66 1005.78 519.50 1004.75 530.14 C 1004.00 563.35 998.98 596.53 991.33 628.84 C 981.20 670.14 965.84 710.10 945.44 747.43 C 916.50 800.63 877.69 848.34 831.62 887.63 C 780.94 930.93 721.47 963.84 657.79 983.58 C 618.99 995.56 578.55 1002.94 537.99 1004.87 C 532.98 1005.60 528.08 1005.26 523.01 1005.51 C 512.33 1005.62 501.66 1005.57 490.99 1005.34 C 479.31 1004.44 467.64 1003.93 455.99 1002.51 C 397.62 995.98 340.38 978.83 288.11 952.04 C 191.85 903.22 112.75 822.11 66.27 724.72 C 39.13 668.24 23.02 606.53 19.13 543.99 C 17.92 526.05 18.14 507.96 18.59 489.99 C 20.73 440.40 30.39 391.16 47.33 344.50 C 70.77 279.54 108.13 219.75 156.03 170.03 C 212.40 111.29 283.40 66.77 360.96 41.92 C 405.26 27.69 451.54 19.85 498.01 18.61 C 510.03 18.29 522.08 18.43 534.10 18.82 Z" fill="#ff2019" />
<path d="M 521.85 67.38 C 524.61 66.93 527.70 67.53 530.46 67.91 C 546.08 70.04 561.72 72.07 577.34 74.17 C 592.40 75.94 607.43 78.40 622.52 79.87 C 622.31 86.27 620.86 92.62 620.35 99.01 C 620.06 100.88 620.18 103.19 618.43 104.38 C 596.95 121.71 575.22 139.10 553.80 156.47 C 558.72 157.76 563.95 157.91 568.99 158.69 C 582.79 160.67 596.77 162.10 610.51 164.37 C 609.28 172.77 608.04 181.23 607.20 189.67 C 573.68 185.59 540.02 180.90 506.52 176.46 C 507.69 169.62 508.05 162.60 509.45 155.82 C 532.30 137.45 555.04 118.94 577.89 100.58 C 575.31 99.61 572.69 99.61 570.00 99.26 C 552.89 96.90 535.75 94.71 518.64 92.37 C 519.87 84.08 521.03 75.72 521.85 67.38 Z" fill="#ffffff" />
<path d="M 438.15 75.30 C 458.58 108.58 478.99 141.90 499.49 175.13 C 489.12 177.21 478.84 179.88 468.45 181.76 C 465.16 175.60 461.34 169.72 457.90 163.64 C 444.20 166.71 430.45 169.57 416.78 172.76 C 416.04 179.72 415.26 186.68 414.44 193.63 C 404.51 196.19 394.28 197.76 384.41 200.54 C 384.43 196.98 385.14 193.53 385.47 190.01 C 389.11 159.00 392.86 128.01 396.50 97.00 C 396.88 92.83 397.71 88.76 397.71 84.54 C 398.96 84.06 400.20 83.59 401.52 83.29 C 413.72 80.63 425.93 77.90 438.15 75.30 Z" fill="#ffffff" />
<path d="M 672.93 96.24 C 673.77 96.69 674.60 97.14 675.44 97.59 C 682.36 101.34 689.50 104.73 696.27 108.73 C 700.70 133.85 705.23 158.98 709.76 184.08 C 711.57 182.87 712.25 180.29 713.33 178.44 C 721.62 162.62 730.00 146.85 738.26 131.02 C 741.40 131.95 743.94 133.73 746.83 135.19 C 752.86 138.39 758.95 141.47 764.92 144.77 C 747.66 177.44 730.55 210.22 713.20 242.83 C 705.49 238.47 697.39 234.72 689.80 230.15 C 689.69 229.10 689.56 228.05 689.41 227.00 C 685.15 202.94 680.63 178.92 676.30 154.87 C 675.93 155.26 675.57 155.66 675.22 156.08 C 666.22 173.43 656.92 190.72 647.93 208.08 C 644.84 206.99 642.16 205.24 639.25 203.75 C 633.23 200.60 627.17 197.53 621.23 194.24 C 638.60 161.65 655.66 128.88 672.93 96.24 Z" fill="#ffffff" />
<path d="M 423.80 107.82 C 424.67 108.09 425.28 108.55 425.65 109.20 C 431.71 119.61 437.88 129.95 443.93 140.37 C 435.90 142.24 427.80 144.09 419.69 145.59 C 421.26 133.04 422.69 120.41 423.80 107.82 Z" fill="#ff2019" />
<path d="M 313.04 125.71 C 320.63 126.65 327.65 130.60 332.50 136.49 C 337.87 142.83 342.12 151.53 341.57 160.00 C 341.46 166.34 338.96 171.79 335.69 177.07 C 343.26 177.24 349.59 179.78 355.24 184.76 C 361.23 190.14 367.07 195.54 373.63 200.27 C 375.20 201.34 376.72 202.41 378.01 203.82 C 369.25 209.28 360.48 214.84 351.96 220.67 C 348.40 219.54 345.51 216.70 342.74 214.26 C 338.00 210.06 333.84 204.99 328.83 201.18 C 325.73 198.87 321.97 196.62 318.00 196.54 C 315.10 196.49 312.75 197.73 310.40 199.26 C 306.04 202.14 301.60 204.88 297.26 207.79 C 304.34 218.67 311.40 229.65 318.42 240.56 C 319.31 241.90 318.01 242.29 317.13 242.99 C 309.36 247.91 301.69 252.99 293.92 257.91 C 275.72 229.53 257.38 201.25 239.13 172.90 C 237.50 170.27 235.58 167.76 234.15 165.01 C 234.62 164.01 235.97 163.45 236.83 162.80 C 248.03 155.70 259.13 148.43 270.29 141.27 C 276.80 137.14 282.72 132.88 289.85 129.89 C 297.04 126.80 305.18 124.65 313.04 125.71 Z" fill="#ffffff" />
<path d="M 307.76 154.22 C 311.58 156.91 314.71 162.46 313.29 167.20 C 311.56 172.09 306.70 175.73 302.57 178.57 C 296.98 182.31 291.19 185.75 285.70 189.62 C 281.07 182.59 276.22 175.58 272.05 168.27 C 278.89 164.01 285.53 159.43 292.44 155.29 C 296.97 152.74 303.13 150.90 307.76 154.22 Z" fill="#ff2019" />
<path d="M 798.54 203.81 C 805.72 203.04 812.98 203.32 819.97 205.25 C 846.08 212.14 866.84 236.18 870.13 262.94 C 871.73 276.26 868.78 289.98 860.95 300.98 C 854.27 310.36 844.81 317.94 834.03 322.08 C 823.19 326.17 811.29 326.56 800.16 323.41 C 773.49 315.89 752.76 290.63 750.59 263.00 C 749.60 250.15 753.06 237.09 760.69 226.66 C 769.70 214.51 783.45 205.78 798.54 203.81 Z" fill="#ffffff" />
<path d="M 192.08 205.89 C 197.70 210.25 203.33 214.59 208.98 218.92 C 197.38 234.37 185.20 249.45 173.73 264.99 C 178.76 269.00 183.88 272.90 189.01 276.78 C 200.24 261.88 211.68 247.14 223.00 232.31 C 229.02 236.92 234.94 241.66 241.06 246.13 C 240.85 246.86 240.56 247.55 240.21 248.21 C 229.37 262.30 218.04 276.91 207.28 290.96 C 212.86 295.15 218.30 299.53 223.91 303.69 C 235.40 288.60 247.09 273.66 258.60 258.58 C 259.32 257.69 260.10 256.86 260.88 256.03 C 266.84 260.83 272.96 265.55 279.11 270.11 C 278.24 272.14 276.88 273.80 275.50 275.50 C 258.37 297.60 241.40 319.84 224.21 341.90 C 195.05 319.21 165.61 296.85 136.50 274.09 C 154.15 251.51 171.57 228.72 189.07 206.02 C 190.07 204.70 190.91 204.95 192.08 205.89 Z" fill="#ffffff" />
<path d="M 500.07 226.12 C 512.35 225.09 525.13 226.18 537.43 226.94 C 563.56 229.25 589.26 235.24 613.78 244.54 C 668.96 265.54 717.08 304.07 749.80 353.19 C 778.31 395.69 794.89 445.91 797.50 497.00 C 797.81 511.01 798.08 525.38 796.57 539.31 C 794.14 565.61 787.88 591.66 778.30 616.26 C 758.36 667.51 723.22 712.54 678.56 744.58 C 635.90 775.38 584.50 794.00 532.00 797.51 C 520.75 798.12 508.39 798.97 497.06 797.72 C 433.09 795.14 370.14 769.16 322.33 726.67 C 277.65 687.44 245.77 634.06 232.65 576.05 C 218.14 512.46 225.72 444.30 254.73 385.82 C 280.96 332.14 324.44 287.32 377.19 259.29 C 414.91 239.18 457.35 227.58 500.07 226.12 Z" fill="#ffffff" />
<path d="M 804.51 232.77 C 818.41 231.09 831.00 239.61 837.62 251.38 C 842.64 260.27 843.33 272.12 838.13 281.08 C 832.76 290.71 822.02 296.85 810.97 296.21 C 792.34 294.81 776.58 275.61 779.50 257.00 C 781.34 244.43 792.05 234.48 804.51 232.77 Z" fill="#ff2019" />
<path d="M 483.90 235.69 C 483.92 242.52 482.33 248.95 481.33 255.63 C 485.78 253.28 490.36 251.06 494.90 248.89 C 492.36 252.08 489.58 255.06 487.06 258.26 C 490.13 257.31 492.98 256.73 495.35 254.38 C 498.51 251.17 501.61 248.09 505.64 245.96 C 505.68 247.53 505.71 249.10 505.74 250.67 C 508.04 249.58 510.35 248.52 512.68 247.51 C 512.07 250.00 511.47 252.49 511.09 255.04 C 513.23 253.14 515.20 251.07 517.14 248.97 C 519.60 250.61 521.68 252.65 523.90 254.59 C 526.38 253.48 528.89 252.45 531.40 251.41 C 531.06 253.11 530.71 254.80 530.38 256.50 C 532.63 256.08 534.85 255.58 537.15 255.52 C 535.44 257.20 533.71 258.85 532.04 260.57 C 541.46 260.37 550.35 261.76 559.66 259.48 C 556.75 262.68 553.10 264.93 550.03 267.96 C 553.12 267.07 555.93 265.62 558.84 264.28 C 558.39 266.65 556.27 268.70 554.92 270.64 C 556.97 270.18 559.00 269.65 561.06 269.23 C 559.17 271.73 556.92 273.92 555.04 276.44 C 559.23 274.96 563.19 272.95 567.34 271.34 C 567.79 272.05 568.25 272.75 568.71 273.46 C 570.52 272.46 572.25 272.17 574.31 271.95 C 573.89 273.58 573.47 275.21 573.05 276.84 C 575.90 275.98 578.72 275.05 581.54 274.10 L 581.70 276.68 C 585.52 275.85 589.34 274.96 593.18 274.19 C 591.27 278.20 588.40 281.75 586.00 285.48 C 591.43 282.01 597.25 282.02 603.34 280.60 C 603.52 281.39 603.70 282.17 603.88 282.95 C 606.38 282.60 608.83 282.13 611.28 281.51 C 611.22 283.31 611.16 285.11 611.10 286.91 C 612.36 285.42 613.57 284.07 615.32 283.15 C 614.95 285.52 614.63 287.89 614.40 290.28 C 617.20 288.38 619.93 286.38 622.76 284.53 C 620.25 289.58 617.62 294.56 615.08 299.58 C 621.03 301.84 628.69 298.36 634.98 298.63 C 632.23 300.12 629.45 301.24 627.15 303.45 C 632.03 303.92 636.42 302.70 641.02 301.32 C 640.38 303.63 639.48 305.81 639.13 308.19 C 641.42 308.18 643.71 308.16 645.99 308.16 C 644.72 309.63 643.43 311.09 642.15 312.56 C 645.16 312.61 648.17 312.59 651.19 312.61 C 650.15 313.93 649.08 315.23 647.99 316.50 C 652.06 316.68 656.13 316.56 660.20 316.57 C 659.16 318.22 658.03 319.81 656.89 321.38 C 659.25 321.38 661.60 321.38 663.96 321.41 C 662.77 322.77 660.48 324.28 660.57 326.22 C 663.73 326.34 666.83 326.76 669.95 327.25 C 672.78 327.68 675.39 327.28 677.96 328.78 C 675.23 329.80 670.08 330.79 668.98 333.86 C 673.23 334.79 677.64 335.00 681.95 335.55 C 681.56 339.01 680.31 342.59 680.55 346.06 C 680.50 346.96 680.97 347.64 681.96 348.09 C 684.27 348.79 686.69 349.13 689.05 349.63 C 688.30 351.48 687.57 353.34 686.93 355.22 C 688.54 355.25 690.15 355.28 691.77 355.31 C 691.25 356.31 690.73 357.31 690.20 358.30 C 692.12 358.57 693.98 358.75 695.77 359.56 C 696.58 361.86 693.36 361.86 693.10 364.25 C 697.77 364.36 702.30 365.29 706.93 365.79 C 705.21 367.07 702.71 368.16 701.85 370.17 C 704.93 370.19 708.00 370.17 711.08 370.48 C 707.06 374.20 702.19 376.90 698.09 380.54 C 704.75 379.26 711.65 378.40 718.45 378.64 C 712.85 382.63 706.67 388.05 704.26 394.66 C 708.61 394.73 712.61 394.24 716.75 394.99 C 719.18 395.39 721.63 395.58 724.08 395.80 C 722.76 397.70 719.52 398.87 719.28 401.19 C 722.39 401.80 725.38 402.59 728.30 403.82 C 728.43 404.32 728.56 404.83 728.70 405.33 C 723.55 407.65 717.67 405.71 712.89 409.87 C 709.51 412.72 708.97 416.51 708.94 420.70 C 713.79 419.94 718.34 418.17 723.20 417.37 C 718.84 422.00 713.88 425.55 711.96 432.10 C 710.98 435.06 713.18 438.72 716.20 439.24 C 722.16 438.61 726.26 435.47 731.41 433.21 C 727.59 439.65 723.59 446.98 717.97 451.97 C 713.88 455.75 712.89 462.00 709.75 466.61 C 704.73 474.47 697.37 479.81 689.56 484.66 C 686.33 486.71 682.72 488.08 680.71 491.52 C 679.23 493.80 679.22 496.17 678.85 498.75 L 678.34 495.93 C 675.72 496.33 673.82 497.85 671.53 499.04 C 671.92 496.69 672.34 494.35 672.63 491.99 C 669.38 493.67 666.41 495.75 663.30 497.64 C 663.74 494.72 664.49 491.88 665.08 488.99 C 662.59 490.83 660.44 493.14 657.88 494.87 C 656.32 494.11 655.89 491.27 655.02 489.88 C 653.62 492.23 652.14 494.44 650.14 496.33 C 648.16 494.84 646.10 493.54 643.94 492.34 C 643.29 494.31 642.66 496.30 642.03 498.28 C 639.70 496.32 638.66 493.18 636.70 490.82 C 636.20 494.62 635.43 498.37 635.12 502.20 L 633.71 501.43 C 628.05 493.11 628.62 483.46 628.15 473.86 C 626.69 476.41 626.15 480.81 623.47 482.23 C 622.10 474.20 621.83 466.00 620.15 458.00 C 617.80 447.51 614.89 437.14 612.34 426.71 C 612.29 431.58 613.58 436.27 613.61 441.12 C 610.93 435.34 608.77 429.28 607.04 423.15 C 605.43 416.91 603.41 410.46 600.33 404.77 C 600.55 409.83 602.15 414.66 602.47 419.72 C 601.92 419.58 601.37 419.45 600.82 419.31 C 597.95 412.29 595.81 405.05 593.56 397.81 C 592.82 395.41 592.35 393.05 590.98 390.90 C 590.34 392.58 589.72 394.27 589.10 395.96 C 587.73 394.90 587.51 393.41 586.94 391.88 C 585.55 387.81 584.11 383.75 582.49 379.77 C 582.56 382.14 582.66 384.51 582.79 386.87 C 581.99 384.85 581.16 382.88 579.84 381.13 C 576.03 375.98 571.58 371.26 566.98 366.82 C 567.87 370.23 569.37 373.35 570.55 376.66 C 563.56 369.94 557.50 362.23 550.91 355.12 C 545.12 349.41 538.78 344.92 531.39 341.52 C 532.00 344.92 532.75 348.26 533.62 351.60 C 530.22 348.21 526.94 344.79 522.91 342.13 C 515.31 336.94 506.94 332.42 498.32 329.21 C 499.26 331.03 500.18 332.86 501.02 334.73 C 492.89 329.47 483.44 327.51 474.03 325.84 C 469.60 325.37 465.43 324.25 461.01 324.39 C 462.82 326.04 464.82 327.43 466.81 328.85 C 455.44 326.32 444.07 327.68 433.02 330.98 C 430.58 331.81 427.37 332.16 425.58 334.07 C 428.39 334.27 431.19 334.31 434.01 334.36 C 429.17 334.88 424.97 336.16 420.76 338.64 C 410.47 344.60 401.55 353.26 394.01 362.39 C 396.62 360.92 399.12 359.34 401.87 358.11 C 395.75 365.41 387.67 371.21 380.65 377.62 C 372.91 385.85 367.75 395.90 363.21 406.16 C 361.75 409.68 360.08 413.21 359.14 416.85 C 362.08 414.68 364.80 412.29 367.92 410.36 C 364.22 415.82 360.40 421.19 356.61 426.58 C 350.34 435.05 347.70 446.67 346.05 456.90 C 345.38 460.24 345.59 463.49 344.51 466.69 C 347.35 462.65 348.94 457.98 351.74 453.91 C 349.90 476.48 347.97 498.30 350.44 520.98 C 352.52 538.37 355.02 555.72 357.83 573.00 C 358.31 575.80 358.52 578.57 359.42 581.29 C 356.47 585.70 352.48 590.61 351.46 596.01 C 350.77 602.17 353.36 608.34 355.70 613.90 C 351.94 610.13 348.82 605.66 345.68 601.37 C 343.57 602.98 341.49 604.63 339.41 606.29 C 338.28 602.18 338.84 597.71 338.44 593.46 C 335.07 594.78 331.77 596.65 328.22 596.97 C 328.73 593.03 330.43 589.45 330.78 585.48 C 325.04 587.13 318.64 588.08 312.68 588.35 C 312.58 587.69 312.49 587.02 312.39 586.35 C 318.13 583.50 324.47 581.64 330.63 579.91 C 331.82 579.53 332.97 578.91 334.08 578.35 C 331.13 579.58 328.09 579.43 325.00 579.93 C 315.03 581.57 305.02 582.96 295.03 584.47 C 300.02 579.42 305.81 574.94 310.46 569.52 C 305.61 571.43 300.01 571.92 294.96 573.30 C 299.81 567.91 305.96 562.90 309.79 556.79 C 305.63 556.63 301.48 556.86 297.32 556.56 C 300.86 553.86 304.28 551.00 307.78 548.25 C 304.75 548.33 301.86 549.01 298.89 549.46 C 301.70 546.57 305.83 545.24 308.89 542.57 C 304.29 542.46 299.71 542.67 295.12 542.48 C 301.23 539.12 309.46 536.50 314.00 531.01 C 317.48 527.11 320.73 522.94 323.62 518.58 C 324.39 517.49 324.70 516.26 325.07 514.99 C 319.72 516.07 315.22 521.81 311.40 525.40 C 314.08 520.18 317.27 515.23 320.02 510.05 C 312.23 512.64 304.60 515.86 296.93 518.78 C 299.40 514.71 305.30 512.96 307.58 508.58 C 309.94 504.25 312.68 500.11 314.86 495.68 C 308.75 497.26 302.48 498.95 296.17 499.34 C 296.86 497.37 298.80 496.43 300.34 495.19 C 304.85 491.73 309.35 488.22 313.72 484.58 C 309.47 483.96 305.20 483.56 300.96 482.94 C 304.35 481.27 308.15 480.62 311.54 479.04 L 312.12 477.75 C 306.22 477.22 300.61 475.69 294.96 473.98 C 302.97 473.39 311.10 474.01 319.11 473.28 C 314.67 471.74 310.10 471.00 305.59 469.69 C 308.40 469.21 311.21 468.73 314.01 468.16 C 311.84 467.29 308.38 466.92 307.04 464.88 C 306.63 463.32 308.71 462.84 309.76 462.39 C 314.04 460.88 318.42 459.83 322.82 458.76 C 314.97 457.71 306.89 458.19 299.01 457.45 C 303.28 455.48 307.48 453.40 311.90 451.76 C 307.26 449.62 301.64 451.51 297.02 449.94 C 304.78 447.45 312.56 444.84 320.10 441.76 C 316.70 441.35 313.29 441.25 309.87 441.16 C 310.71 438.53 315.10 437.57 317.23 436.04 C 317.38 435.54 317.54 435.04 317.70 434.55 C 314.44 435.59 311.17 435.48 307.79 435.51 C 310.17 432.36 312.90 429.47 315.57 426.56 C 316.61 425.34 317.88 424.52 317.88 422.76 C 314.51 422.41 311.24 421.55 307.88 421.14 C 310.80 419.58 314.05 419.56 317.09 418.27 C 311.02 416.15 304.97 413.96 299.00 411.58 C 305.32 411.47 311.64 412.14 317.99 411.77 C 321.32 411.64 324.16 409.72 326.60 407.63 C 328.01 406.34 329.43 405.29 329.89 403.33 C 326.53 401.47 322.91 400.21 319.48 398.50 C 313.95 395.25 309.49 389.68 305.97 384.39 C 313.08 385.24 320.04 387.36 327.18 387.99 C 323.84 382.83 319.56 378.26 315.94 373.30 C 314.82 371.02 314.35 368.61 315.76 366.35 C 317.35 368.77 318.57 371.39 320.05 373.87 C 323.90 379.66 330.07 383.42 336.86 384.70 C 335.71 381.92 334.47 379.17 333.43 376.33 C 335.12 377.32 336.85 378.19 338.69 378.87 C 337.67 375.99 336.52 373.17 335.46 370.31 C 337.59 370.43 339.59 370.74 341.63 371.38 C 341.22 367.52 338.29 364.28 337.27 360.50 C 339.43 361.49 341.57 362.52 343.73 363.48 C 342.12 358.21 339.42 353.33 337.71 348.07 C 339.68 349.73 341.59 351.45 343.50 353.18 C 339.36 345.81 336.97 337.51 335.54 329.22 C 339.07 335.68 342.78 341.73 348.00 347.00 C 350.47 349.37 353.08 351.60 355.72 353.76 C 354.98 350.70 353.95 347.56 351.92 345.08 C 350.02 342.85 347.39 341.07 345.11 339.22 C 348.76 341.37 353.04 344.01 357.33 344.33 C 357.41 339.21 352.14 334.03 349.30 330.04 C 353.83 333.14 358.29 336.35 362.78 339.52 C 360.97 335.33 358.81 331.28 357.20 327.01 C 359.33 328.46 360.92 331.35 363.43 331.94 C 362.86 327.30 362.55 322.65 362.29 317.98 C 364.20 320.25 365.92 322.65 367.69 325.02 C 367.84 318.08 366.07 311.37 366.29 304.41 C 368.86 310.34 371.49 316.26 374.32 322.07 C 374.15 316.62 373.18 311.19 372.56 305.77 C 374.86 308.23 376.02 311.03 377.75 313.89 C 374.91 303.58 372.09 292.81 377.44 282.73 C 377.01 287.36 376.76 291.79 378.48 296.22 C 380.17 300.66 382.42 305.45 385.60 308.99 C 385.58 299.90 385.53 290.80 385.62 281.71 C 388.02 285.24 388.34 290.11 389.55 294.18 C 388.73 284.88 387.21 275.18 385.53 265.98 C 388.70 270.01 389.37 275.32 392.29 279.67 C 392.57 274.17 392.83 268.65 392.82 263.14 C 393.24 263.36 393.65 263.59 394.06 263.81 C 395.56 267.12 397.24 270.34 398.82 273.62 C 399.26 273.67 399.69 273.73 400.13 273.78 C 401.41 267.16 403.42 260.65 405.16 254.14 C 405.94 258.09 406.15 262.17 407.20 266.05 C 408.48 263.22 409.88 260.42 410.98 257.53 L 411.48 257.54 C 408.39 264.96 412.50 272.70 417.24 278.34 C 416.50 269.23 419.03 260.97 421.92 252.49 C 422.41 252.41 422.91 252.33 423.40 252.25 C 423.18 257.04 423.28 261.80 423.30 266.59 C 426.98 264.08 430.76 261.77 434.37 259.17 C 435.41 262.38 436.34 265.62 436.97 268.94 C 441.43 264.96 444.75 260.17 448.97 256.02 C 447.70 261.47 445.55 266.75 444.16 272.17 C 448.44 268.16 451.59 263.00 455.71 258.85 C 454.88 263.01 452.75 266.89 451.28 270.86 C 454.48 269.96 456.97 267.56 459.28 265.28 C 461.00 263.47 462.99 261.45 463.90 259.10 C 465.78 254.03 468.17 249.15 470.70 244.38 C 470.86 247.35 470.83 250.33 470.87 253.31 C 473.16 251.23 474.38 248.67 476.22 246.21 C 478.77 242.70 481.30 239.17 483.90 235.69 Z" fill="#222223" />
<path d="M 144.07 362.84 C 150.61 362.08 157.15 363.69 162.59 367.39 C 171.72 373.47 176.30 385.33 173.61 395.97 C 170.75 408.40 158.73 417.43 145.99 416.65 C 132.02 416.19 120.14 404.03 120.37 390.00 C 119.82 376.43 130.65 364.32 144.07 362.84 Z" fill="#ffffff" />
<path d="M 876.14 363.09 C 885.28 361.42 895.03 364.78 901.09 371.83 C 909.07 380.60 910.04 394.64 903.43 404.45 C 898.68 411.95 889.88 416.72 881.00 416.68 C 873.26 416.78 865.56 413.37 860.49 407.50 C 852.78 398.73 851.59 385.78 857.64 375.76 C 861.58 369.08 868.51 364.38 876.14 363.09 Z" fill="#ffffff" />
<path d="M 943.38 477.27 C 943.18 482.84 943.21 488.42 942.86 493.99 C 942.66 497.43 943.07 500.75 942.39 504.17 C 936.72 505.70 930.92 507.31 925.43 509.38 C 925.30 515.92 925.38 522.48 925.17 529.01 C 924.49 534.14 924.91 539.27 924.46 544.42 C 929.94 546.93 935.82 548.69 941.47 550.81 C 941.55 557.55 941.13 564.27 941.22 571.00 C 941.24 573.12 941.02 575.21 940.71 577.30 C 910.37 565.69 878.70 554.25 848.30 542.68 C 847.37 539.71 848.12 536.09 848.16 533.01 C 848.29 524.57 848.55 516.13 848.63 507.69 C 865.97 502.10 883.29 496.48 900.62 490.90 C 914.91 486.51 929.04 481.46 943.38 477.27 Z" fill="#ffffff" />
<path d="M 174.55 480.34 C 175.19 489.70 175.74 498.99 175.63 508.38 C 164.80 515.58 154.19 523.11 143.42 530.40 C 141.85 531.44 140.29 532.38 139.14 533.91 C 152.07 541.02 164.77 548.59 177.60 555.90 C 177.94 557.58 178.26 559.24 178.27 560.96 C 178.36 568.15 178.66 575.34 178.88 582.54 C 159.26 571.35 139.61 560.21 120.01 548.99 C 118.03 547.95 116.34 546.39 114.01 546.62 C 103.86 547.89 93.65 547.00 83.51 548.31 C 83.17 539.74 82.46 531.21 82.35 522.63 C 93.33 522.41 104.22 521.42 115.21 521.33 C 134.97 507.65 154.92 494.20 174.55 480.34 Z" fill="#ffffff" />
<path d="M 682.80 510.35 C 682.64 515.98 681.77 521.44 681.14 527.04 C 678.90 544.84 675.93 563.42 670.17 580.46 C 669.70 581.93 669.75 583.41 669.88 584.92 C 671.30 601.49 675.31 617.94 680.22 633.80 C 680.90 636.38 682.95 638.51 681.16 641.09 C 678.27 644.76 674.09 647.55 670.48 650.49 C 667.81 652.66 665.32 653.92 662.00 654.85 C 665.29 651.05 671.20 647.55 672.65 642.64 C 666.89 641.65 660.84 642.46 655.00 642.45 C 647.15 642.41 639.46 643.72 631.60 643.52 C 627.98 647.24 624.94 651.48 621.22 655.13 C 626.78 662.52 636.43 668.68 646.02 667.51 C 652.37 666.88 657.24 663.78 662.22 660.06 C 660.55 667.98 659.90 676.16 658.49 684.13 C 656.62 685.81 653.88 687.30 652.62 689.48 C 649.10 699.73 644.81 710.34 637.84 718.77 C 633.35 724.17 627.20 728.30 620.01 728.70 C 610.57 729.25 600.45 727.43 592.17 722.75 C 586.70 719.65 582.50 714.58 582.62 708.02 C 583.26 703.23 585.84 698.54 587.89 694.20 C 577.76 705.86 567.33 717.54 557.10 729.13 C 556.76 730.61 558.92 731.37 559.84 732.12 C 580.43 745.92 606.48 752.76 630.96 747.16 C 625.13 755.11 617.65 762.00 609.43 767.43 C 607.28 769.26 603.68 768.10 601.00 768.33 C 565.09 767.18 529.24 759.51 495.80 746.36 C 495.02 745.82 492.37 745.53 493.20 744.14 C 532.08 712.70 570.31 680.06 605.75 644.76 C 619.31 630.77 633.68 615.83 644.27 599.42 C 652.99 586.08 656.92 568.03 651.21 552.78 C 647.48 542.46 640.35 534.24 631.40 528.03 C 648.56 522.26 665.48 515.63 682.80 510.35 Z" fill="#222223" />
<path d="M 903.51 516.05 C 903.33 522.96 903.52 529.98 902.93 536.86 C 892.94 533.24 882.96 529.56 872.92 526.07 L 873.47 525.05 C 883.29 521.96 893.60 518.94 903.51 516.05 Z" fill="#ff2019" />
<path d="M 592.85 529.23 C 607.46 532.26 620.99 538.77 630.83 550.23 C 635.95 556.49 640.88 563.71 641.55 572.01 C 642.41 580.80 638.90 589.47 632.66 595.62 C 626.72 601.97 618.53 605.80 610.05 607.32 C 599.67 608.74 589.65 606.80 579.92 603.22 C 573.84 600.86 568.15 598.19 563.38 593.63 C 556.06 587.13 550.20 578.77 548.40 569.01 C 545.58 555.76 550.83 540.85 562.43 533.41 C 571.29 527.62 582.77 527.24 592.85 529.23 Z" fill="#222223" />
<path d="M 591.68 532.95 C 600.97 535.57 610.11 539.41 618.15 544.81 C 625.18 549.55 631.00 555.74 634.59 563.47 C 636.97 568.59 637.34 574.52 636.43 580.03 C 634.55 589.86 627.26 598.37 617.81 601.70 C 610.92 604.00 603.13 603.71 596.01 602.78 C 587.23 602.16 577.73 599.75 570.61 594.35 C 565.27 590.02 560.29 583.99 557.13 577.88 C 552.93 570.03 551.73 560.79 554.21 552.21 C 556.46 545.64 560.43 539.87 566.89 536.90 C 574.41 533.39 583.48 532.36 591.68 532.95 Z" fill="#ffffff" />
<path d="M 579.59 535.95 C 584.08 535.38 588.94 534.94 593.41 535.76 C 603.12 538.89 613.28 543.21 621.10 549.87 C 626.66 554.73 632.07 561.56 633.44 568.97 C 634.01 573.85 634.10 579.42 632.03 583.99 C 628.69 592.47 620.64 599.13 611.59 600.48 C 606.86 600.91 602.05 600.68 597.31 600.53 C 587.26 599.66 577.23 597.46 569.68 590.32 C 563.25 584.01 557.82 576.05 556.35 567.01 C 554.64 558.61 557.24 549.36 563.08 543.08 C 567.55 538.74 573.57 536.90 579.59 535.95 Z" fill="#222223" />
<path d="M 847.69 563.21 C 854.79 564.47 861.80 566.90 868.83 568.64 C 866.50 578.38 863.67 588.01 861.19 597.71 C 883.49 603.60 905.72 609.67 928.01 615.60 C 928.97 615.91 929.92 616.23 930.86 616.56 C 928.45 624.60 926.44 632.75 924.21 640.84 C 901.06 634.47 877.81 628.48 854.66 622.12 C 852.01 631.70 849.49 641.33 846.93 650.95 C 839.76 649.24 832.62 647.22 825.53 645.22 C 833.17 618.00 840.15 590.45 847.69 563.21 Z" fill="#ffffff" />
<path d="M 667.50 587.65 L 667.50 587.65 L 667.49 587.93 C 666.86 594.89 668.57 602.13 669.96 608.98 C 671.74 617.55 674.28 625.91 676.60 634.34 C 670.73 632.29 665.08 632.66 658.99 632.70 C 652.22 633.39 645.47 633.46 638.72 634.43 C 650.01 619.78 660.43 604.87 667.50 587.65 Z" fill="#ffffff" />
<path d="M 190.50 617.18 C 193.32 624.10 196.15 631.01 199.08 637.87 C 199.34 638.77 200.55 640.61 199.04 640.99 C 177.21 649.95 155.27 659.11 133.43 668.00 C 139.45 682.70 145.65 697.33 151.57 712.08 C 144.66 714.44 138.09 718.15 131.05 720.04 C 121.93 697.64 112.63 675.26 103.41 652.90 C 130.15 641.75 156.98 630.83 183.73 619.71 C 186.00 618.78 188.09 617.72 190.50 617.18 Z" fill="#ffffff" />
<path d="M 816.39 661.32 C 817.89 661.08 819.51 661.39 821.01 661.60 C 852.22 666.76 883.51 671.50 914.74 676.58 C 910.77 684.37 906.39 691.95 902.49 699.78 C 896.40 699.77 890.39 697.62 884.30 697.25 C 878.76 707.63 873.27 718.06 867.51 728.33 C 871.06 732.19 874.74 735.93 878.27 739.81 C 878.78 740.54 880.16 741.51 879.42 742.48 C 875.43 749.93 871.34 757.32 867.38 764.80 C 844.89 740.61 822.75 716.08 800.12 692.03 C 800.75 690.36 801.47 688.75 802.36 687.20 C 807.11 678.63 811.60 669.86 816.39 661.32 Z" fill="#ffffff" />
<path d="M 829.07 687.33 C 839.94 689.04 850.71 691.41 861.60 692.98 C 858.69 699.30 854.99 705.25 851.93 711.51 C 844.15 703.63 836.69 695.38 829.07 687.33 Z" fill="#ff2019" />
<path d="M 602.99 688.22 C 617.50 694.75 635.29 697.90 649.97 690.13 C 647.71 698.37 643.00 706.11 637.81 712.83 C 634.89 716.84 630.55 719.11 625.83 720.34 C 617.68 722.73 608.24 719.71 600.86 716.13 C 597.60 714.59 595.21 711.73 595.62 707.95 C 596.28 702.09 599.29 696.11 601.75 690.79 C 602.16 689.93 602.57 689.07 602.99 688.22 Z" fill="#ffffff" />
<path d="M 232.20 705.50 C 233.07 705.21 233.68 705.36 234.03 705.94 C 240.90 714.89 247.61 724.05 254.51 732.98 C 235.95 760.49 217.68 788.21 199.20 815.77 C 193.84 808.56 188.14 801.53 183.08 794.11 C 186.44 789.27 190.44 784.47 193.03 779.19 C 186.28 770.53 179.73 761.69 173.13 752.90 C 172.70 752.29 172.19 751.78 171.61 751.39 C 165.94 752.96 160.36 755.15 154.69 756.82 C 149.47 749.79 143.93 742.93 138.97 735.73 C 170.01 725.73 201.16 715.57 232.20 705.50 Z" fill="#ffffff" />
<path d="M 224.99 733.33 C 219.29 742.47 212.60 751.03 206.76 760.09 C 204.79 759.47 203.75 757.04 202.48 755.51 C 199.75 751.53 196.30 747.98 193.96 743.77 C 204.27 740.19 214.70 736.98 224.99 733.33 Z" fill="#ff2019" />
<path d="M 753.13 751.00 C 755.85 752.98 757.99 755.29 760.44 757.58 C 774.78 771.23 789.26 784.76 803.58 798.42 C 804.32 799.05 805.09 799.65 805.90 800.21 C 816.65 788.81 827.54 777.51 838.16 765.97 C 843.90 770.51 848.92 776.07 854.35 781.00 C 846.46 789.56 838.31 797.86 830.41 806.41 C 821.53 815.54 813.06 825.08 804.06 834.08 C 799.23 829.19 794.20 824.51 789.12 819.89 C 773.32 804.68 757.19 789.81 741.38 774.61 C 739.46 772.82 737.42 771.28 735.92 769.07 C 741.90 763.27 747.43 757.05 753.13 751.00 Z" fill="#ffffff" />
<path d="M 297.00 787.51 C 324.33 786.49 350.89 807.24 355.51 834.41 C 347.58 834.93 339.64 836.53 331.69 836.63 C 331.16 832.68 329.43 829.11 327.15 825.87 C 319.77 815.75 306.77 808.78 294.15 812.55 C 282.74 815.67 274.82 827.23 276.78 839.03 C 279.50 854.83 295.34 866.37 311.07 865.76 C 312.56 865.65 313.37 866.56 313.41 867.97 C 314.26 874.72 315.80 881.38 316.52 888.13 C 288.39 892.08 259.25 872.76 252.60 845.04 C 248.23 827.71 255.10 808.99 268.81 797.79 C 276.59 791.38 286.93 787.65 297.00 787.51 Z" fill="#ffffff" />
<path d="M 738.15 794.90 C 755.80 802.03 767.78 821.14 767.34 840.03 C 766.74 853.15 760.69 865.27 751.49 874.49 C 742.64 883.07 731.21 889.29 719.00 891.28 C 714.51 891.68 710.33 892.72 705.85 891.80 C 700.40 891.44 695.08 890.15 690.12 887.87 C 673.65 880.53 662.63 862.95 662.50 845.01 C 662.66 835.41 665.64 825.96 671.00 817.99 C 678.98 805.71 691.99 796.74 706.13 793.09 C 716.51 790.40 728.20 790.69 738.15 794.90 Z" fill="#ffffff" />
<path d="M 708.56 816.88 C 716.35 814.26 725.14 815.30 731.83 820.18 C 736.86 823.95 740.75 829.77 741.72 836.03 C 743.36 843.52 740.30 851.71 735.33 857.34 C 727.42 866.07 714.30 870.88 703.01 866.11 C 693.66 862.46 687.67 852.91 687.62 843.00 C 687.98 830.66 697.21 820.66 708.56 816.88 Z" fill="#ff2019" />
<path d="M 367.87 823.50 C 375.60 825.90 383.33 828.47 391.07 830.88 C 390.43 834.91 388.87 838.54 387.70 842.53 C 385.19 850.10 383.08 857.82 380.36 865.32 C 392.89 869.84 405.82 873.40 418.42 877.76 C 422.43 866.29 425.65 854.55 429.62 843.07 C 437.62 845.73 445.68 848.26 453.73 850.76 C 444.36 880.73 434.80 910.65 425.25 940.56 C 417.34 937.99 409.40 935.18 401.34 933.14 C 401.52 931.54 401.83 930.02 402.36 928.49 C 405.85 917.97 409.08 907.36 412.54 896.82 C 400.84 893.19 389.14 889.51 377.49 885.74 C 376.40 885.46 375.30 885.23 374.18 885.04 C 370.53 896.89 366.66 908.67 363.08 920.53 C 354.92 918.49 346.93 915.53 338.89 913.07 C 339.31 911.29 339.75 909.51 340.32 907.77 C 348.97 880.35 357.74 852.94 366.39 825.51 C 366.62 824.27 367.11 823.60 367.87 823.50 Z" fill="#ffffff" />
<path d="M 656.04 825.26 C 647.74 840.55 639.43 855.84 631.16 871.15 C 630.03 873.15 628.83 875.06 628.18 877.29 C 645.46 888.74 662.36 900.84 679.54 912.45 C 680.83 913.29 682.02 914.25 683.15 915.29 C 674.33 917.93 665.42 920.26 656.61 922.92 C 655.23 923.19 653.26 924.17 652.10 923.06 C 640.11 915.09 628.03 906.99 616.02 899.02 C 614.34 902.05 612.62 905.05 610.89 908.04 C 610.18 909.40 609.38 910.36 610.07 911.95 C 612.38 919.37 614.31 926.90 616.67 934.30 C 608.61 936.85 600.35 938.81 592.33 941.48 C 590.80 937.81 590.07 933.80 588.86 930.00 C 581.93 906.38 575.34 882.66 568.41 859.03 C 567.60 856.32 566.78 853.63 566.25 850.84 C 574.47 848.88 582.46 845.99 590.68 844.09 C 594.01 856.13 597.53 868.13 601.01 880.13 C 609.33 865.08 617.79 850.11 626.12 835.07 C 627.01 832.99 629.10 832.99 630.99 832.32 C 639.37 830.08 647.62 827.31 656.04 825.26 Z" fill="#ffffff" />
<path d="M 554.99 873.01 C 563.05 884.60 564.76 899.34 561.35 912.83 C 558.40 923.91 551.08 933.31 541.51 939.50 C 522.90 951.35 497.15 951.34 478.59 939.40 C 470.26 934.06 463.61 926.26 460.03 917.01 C 456.59 908.21 456.11 898.18 458.03 888.97 C 460.36 878.59 466.31 869.24 474.72 862.72 C 483.62 855.81 494.80 851.66 506.07 851.27 C 524.57 849.81 544.30 857.37 554.99 873.01 Z" fill="#ffffff" />
<path d="M 504.50 874.77 C 514.64 873.21 525.20 875.99 531.95 884.02 C 539.44 892.95 539.55 906.96 531.70 915.69 C 522.39 926.65 504.63 927.89 493.03 919.96 C 486.82 915.61 482.61 908.67 482.38 901.01 C 481.91 893.97 484.79 886.76 489.97 881.97 C 493.93 878.07 499.08 875.80 504.50 874.77 Z" fill="#ff2019" />
</svg>